<svg width="5000" height="2044" viewBox="0 0 5000 2044" fill="none" xmlns="http://www.w3.org/2000/svg">
<path d="M1172.26 292.485V0C1070.12 1.53787 977.647 14.6823 894.863 39.4622C812.08 64.2422 741.28 102.921 682.464 155.528C598.897 228.271 538.165 316.452 500.241 420.156C462.317 523.832 443.369 653.041 443.369 807.814C443.369 872.811 440.293 928.522 434.084 974.948C427.903 1021.37 419.373 1061.21 408.55 1094.5C397.698 1127.78 384.176 1155.6 367.927 1178.06C351.678 1200.52 334.268 1219.47 315.697 1234.93C275.452 1268.97 226.327 1292.18 168.294 1304.54C110.262 1316.93 54.1445 1323.12 0 1323.12L0 1613.28C106.78 1614.82 202.331 1603.62 286.681 1579.62C371.031 1555.62 444.936 1517.32 508.366 1464.71C560.972 1421.36 603.539 1373.02 636.038 1319.63C668.536 1266.24 692.909 1211.32 709.159 1154.82C725.408 1098.33 736.231 1040.29 741.657 980.723C747.083 921.152 749.782 863.497 749.782 807.785C749.782 745.893 752.886 691.72 759.067 645.294C765.247 598.868 774.156 559.028 785.762 525.747C797.369 492.494 811.296 464.232 827.545 441.019C843.794 417.806 861.988 396.914 882.096 378.344C911.519 352.026 951.358 331.134 1001.64 315.669C1051.93 300.203 1108.8 292.485 1172.26 292.485Z" fill="#E60012"/>
<path d="M3514.11 1634.19V1423.53H3514.14C3544.32 1423.53 3572.75 1417.44 3599.42 1405.25C3626.08 1393.06 3649.62 1375.65 3669.96 1353.02C3690.24 1330.39 3706.23 1303.4 3717.81 1272.04C3729.41 1240.7 3735.22 1205.88 3735.22 1167.58C3735.22 1129.28 3729.44 1093.88 3717.81 1061.38C3706.23 1028.88 3690.24 1001.02 3669.96 977.812C3649.65 954.599 3626.11 936.609 3599.42 923.841C3572.72 911.074 3544.32 904.691 3514.14 904.691H3514.11V694.032H3514.14C3576.82 694.032 3635.43 705.929 3689.98 729.722C3744.53 753.516 3792.41 786.565 3833.61 828.958C3874.81 871.322 3907.31 921.23 3931.1 978.682C3954.87 1036.13 3966.77 1098.52 3966.77 1165.84C3966.77 1233.16 3954.87 1295.25 3931.1 1352.12C3907.31 1408.99 3874.81 1458.32 3833.61 1500.11C3792.41 1541.89 3744.53 1574.68 3689.98 1598.47C3635.4 1622.29 3576.82 1634.19 3514.11 1634.19ZM4396.09 1613.3H4556.29C4618.97 1613.3 4677 1601.4 4730.39 1577.61C4783.78 1553.82 4829.91 1521.61 4868.8 1480.98C4907.71 1440.36 4938.17 1392.48 4960.2 1337.35C4982.22 1282.22 4993.28 1223.32 4993.28 1160.64C4993.28 1096.81 4981.96 1036.74 4959.33 980.452C4936.69 924.161 4905.36 874.833 4865.31 832.469C4825.27 790.134 4776.81 756.446 4719.94 731.521C4663.07 706.567 4600.98 694.09 4533.66 694.09C4466.34 694.09 4404.53 706.567 4348.24 731.521C4291.95 756.475 4243.49 790.425 4202.87 833.369C4162.25 876.313 4130.62 926.511 4107.96 983.963C4085.3 1041.42 4074.01 1102.64 4074.01 1167.64V2012.01H4303.82V1167.64C4303.82 1132.82 4309.91 1100.32 4322.1 1070.14C4334.29 1039.96 4350.83 1013.56 4371.72 990.927C4392.61 968.295 4417.01 950.304 4444.87 936.957C4472.72 923.609 4502.29 916.936 4533.66 916.936C4565.02 916.936 4594.62 923.319 4622.45 936.086C4650.33 948.854 4674.71 966.263 4695.6 988.316C4716.49 1010.37 4733.03 1036.16 4745.22 1065.79C4757.4 1095.39 4763.5 1126.98 4763.5 1160.67C4763.5 1194.33 4757.4 1225.09 4745.22 1252.94C4733.03 1280.8 4716.49 1304.88 4695.6 1325.2C4674.71 1345.51 4649.75 1361.47 4620.74 1373.07C4591.72 1384.68 4560.96 1390.48 4528.46 1390.48H4396.12V1613.3H4396.09ZM2230.66 1094.49C2230.66 1035.29 2221.64 981.323 2203.68 932.575C2185.69 883.828 2159.57 841.754 2125.33 806.354C2091.09 770.955 2049.31 743.389 1999.98 723.658C1950.65 703.927 1894.65 694.061 1831.98 694.061C1772.78 694.061 1718.81 705.378 1670.07 727.981C1621.32 750.614 1580.12 781.69 1546.46 821.124C1513.96 781.661 1473.63 750.614 1425.49 727.981C1377.32 705.378 1322.48 694.061 1260.97 694.061C1199.45 694.061 1143.74 704.217 1093.83 724.528C1043.92 744.84 1001.56 772.986 966.74 808.966C931.92 844.946 904.935 887.31 885.784 936.057C866.633 984.805 857.058 1037.61 857.058 1094.49V1613.3H1086.87V1089.26C1086.87 1038.19 1102.83 996.992 1134.74 965.654C1166.66 934.316 1208.74 918.648 1260.97 918.648C1299.27 918.648 1329.44 925.031 1351.5 937.798C1373.55 950.566 1390.09 966.234 1401.11 984.805C1412.14 1003.38 1419.39 1022.26 1422.88 1041.39C1426.36 1060.54 1428.1 1076.5 1428.1 1089.26V1613.3H1657.91V1089.26C1657.91 1038.19 1674.16 996.992 1706.66 965.654C1739.15 934.316 1780.94 918.648 1832.01 918.648C1870.31 918.648 1900.48 925.031 1922.54 937.798C1944.59 950.566 1961.42 966.234 1973.03 984.805C1984.63 1003.38 1992.18 1022.26 1995.66 1041.39C1999.14 1060.54 2000.88 1076.5 2000.88 1089.26V1613.3H2230.69V1094.49H2230.66ZM3514.11 694.032V904.691C3483.96 904.691 3455.24 911.103 3427.93 923.87C3400.69 936.638 3377.15 954.628 3357.42 977.841C3337.69 1001.05 3322.02 1028.91 3310.42 1061.41C3298.84 1093.91 3293.01 1129.31 3293.01 1167.61C3293.01 1205.91 3298.81 1240.73 3310.42 1272.07C3322.02 1303.4 3337.69 1330.39 3357.42 1353.05C3377.15 1375.68 3400.66 1393.09 3427.93 1405.28C3455.21 1417.47 3483.96 1423.53 3514.11 1423.53V1634.19C3451.46 1634.19 3392.82 1622.32 3338.27 1598.53C3283.72 1574.74 3236.14 1541.95 3195.51 1500.16C3154.92 1458.38 3122.68 1409.05 3098.89 1352.18C3075.09 1295.31 3063.23 1233.21 3063.23 1165.9C3063.23 1098.58 3075.09 1036.19 3098.89 978.741C3122.68 921.288 3154.92 871.38 3195.51 829.016C3236.14 786.652 3283.72 753.574 3338.27 729.78C3392.82 705.958 3451.44 694.032 3514.11 694.032ZM2801.01 1613.3H2980.33V1390.45H2820.16C2784.18 1390.45 2751.68 1384.65 2722.66 1373.04C2693.65 1361.44 2668.69 1345.48 2647.8 1325.17C2626.91 1304.85 2610.92 1280.77 2599.92 1252.92C2588.9 1225.06 2583.38 1195.46 2583.38 1164.13C2583.38 1132.79 2588.9 1103.19 2599.92 1075.34C2610.92 1047.48 2626.91 1023.4 2647.8 1003.09C2668.69 982.774 2693.65 966.815 2722.66 955.208C2751.68 943.602 2784.18 937.798 2820.16 937.798H2980.33V716.694H2801.01C2732.53 716.694 2670.72 728.301 2615.56 751.514C2560.43 774.727 2513.43 806.354 2474.54 846.397C2435.66 886.439 2405.77 933.736 2384.88 988.287C2363.99 1042.84 2353.55 1101.42 2353.55 1164.13C2353.55 1226.83 2363.99 1285.41 2384.88 1339.96C2405.77 1394.52 2435.66 1442.1 2474.54 1482.72C2513.43 1523.35 2560.43 1555.27 2615.56 1578.48C2670.72 1601.69 2732.53 1613.3 2801.01 1613.3Z" fill="black"/>
<path d="M173.639 1892.65C180.806 1904.61 183.562 1917.9 181.879 1932.52C179.355 1951.55 170.998 1968.04 156.838 1981.96C142.678 1995.89 121.99 2002.86 94.7434 2002.86C64.5374 2002.86 42.2528 1992.99 27.8898 1973.26C13.5267 1953.53 6.04021 1932.98 5.40186 1911.63H36.1591C37.0006 1931.82 42.8619 1947.26 53.7431 1957.94C64.6242 1968.62 78.5231 1973.96 95.4106 1973.96C112.501 1973.96 125.355 1969.83 133.915 1961.59C142.475 1953.35 147.901 1943.2 150.251 1931.13C151.934 1921.61 150.571 1913.83 146.131 1907.8C141.692 1901.76 134.931 1896.31 125.849 1891.43C115.693 1886.09 104.87 1883.13 93.3505 1882.55C81.831 1881.97 70.1664 1879.01 58.3278 1873.67C43.5294 1866.94 32.2421 1858.76 24.4367 1849.13C16.6023 1839.49 12.9171 1826.2 13.3524 1809.26C13.7876 1792.78 20.6934 1776.88 34.099 1761.56C47.5045 1746.24 67.4099 1738.57 93.8437 1738.57C125.297 1738.57 146.856 1748.27 158.492 1767.65C170.128 1787.03 175.931 1803.8 175.931 1817.96L145.203 1817.62C145.203 1803.92 141.024 1792.02 132.667 1781.93C124.311 1771.83 111.399 1766.78 93.8729 1766.78C77.3917 1766.78 65.2919 1771.25 57.6025 1780.18C49.8842 1789.12 46.0537 1798.81 46.0537 1809.26C46.0537 1820.4 49.0716 1828.53 55.078 1833.63C61.0843 1838.74 67.3807 1842.57 73.9384 1845.12C82.3821 1848.37 93.1182 1850.98 106.089 1852.96C119.059 1854.93 131.797 1859.05 144.274 1865.32C156.635 1871.59 166.472 1880.7 173.639 1892.65Z" fill="black"/>
<path d="M399.245 1993.46L398.926 1880.3C398.926 1865.91 397.069 1855 393.384 1847.57C389.699 1840.14 381.284 1836.78 368.198 1837.47C357.229 1838.4 348.437 1843.1 341.909 1851.57C335.38 1860.05 332.101 1871.83 332.101 1886.92V1993.46H302.94V1880.3C302.94 1865.91 301.141 1855 297.543 1847.57C293.945 1840.14 285.617 1836.78 272.502 1837.47C261.301 1838.4 252.452 1843.1 245.894 1851.57C239.336 1860.05 236.057 1871.83 236.057 1886.92V1993.46H207.215V1814.84H236.057V1836.43C241.541 1829.7 248.737 1822.96 257.616 1816.23C266.495 1809.5 277.667 1806.83 291.217 1808.22C298.819 1809.15 305.725 1812.05 311.964 1816.93C318.173 1821.8 323.106 1829.23 326.704 1839.21C330.708 1833.87 337.527 1826.91 347.132 1818.32C356.736 1809.73 369.997 1806.37 386.913 1808.22C402.756 1810.31 413.521 1817.68 419.237 1830.33C424.925 1843.01 427.797 1856.74 427.797 1871.59V1993.46H399.245Z" fill="black"/>
<path d="M581.75 1993.8C579.864 1990.55 578.529 1986.43 577.804 1981.44C577.079 1976.45 576.585 1971.98 576.382 1968.04C569.825 1975.7 561.381 1982.72 551.022 1989.1C540.663 1995.48 528.941 1999.02 515.854 1999.72C499.373 2000.65 485.01 1997.52 472.765 1990.32C460.52 1983.12 453.44 1971.4 451.554 1955.15C449.436 1938.67 452.222 1925.79 459.94 1916.5C467.658 1907.22 477.64 1900.72 489.885 1897C499.576 1893.75 509.79 1891.78 520.468 1891.08C531.146 1890.39 541.65 1888.99 551.98 1886.91C557.261 1885.75 562.658 1884.29 568.142 1882.55C573.626 1880.81 576.382 1875.76 576.382 1867.41C576.382 1859.75 573.219 1852.32 566.865 1845.12C560.539 1837.93 549.542 1834.33 533.932 1834.33C518.292 1834.33 506.946 1837.58 499.866 1844.08C492.786 1850.58 489.769 1858.47 490.842 1867.75H461.681C460.201 1848.49 466.759 1833.69 481.325 1823.36C495.891 1813.03 513.417 1807.87 533.932 1807.87C552.705 1807.87 569.534 1813.03 584.304 1823.36C599.102 1833.69 606.501 1848.02 606.501 1866.36V1964.9C606.501 1973.26 607.488 1980.05 609.519 1985.27C611.521 1990.49 612.623 1993.34 612.856 1993.8H581.75ZM576.353 1900.49C574.235 1902.11 571.595 1903.74 568.432 1905.36C565.269 1906.99 562.106 1908.15 558.914 1908.84C552.589 1910.47 544.087 1911.8 533.409 1912.85C522.731 1913.89 514.868 1915.34 509.819 1917.2C500.301 1920.45 493.019 1924.45 487.97 1929.21C482.921 1933.97 481.006 1941.11 482.253 1950.63C483.327 1960.14 487.592 1966.47 495.079 1969.6C502.565 1972.74 510.544 1974.07 518.988 1973.61C537.791 1972.21 552.067 1966.18 561.787 1955.5C571.478 1944.82 576.353 1934.84 576.353 1925.56V1900.49Z" fill="black"/>
<path d="M727.175 1840.95C721.459 1840.95 716.613 1841.18 712.609 1841.64C708.605 1842.11 704.571 1843.5 700.567 1845.82C690.847 1851.16 683.506 1858.76 678.544 1868.63C673.582 1878.49 671.086 1891.9 671.086 1908.84V1993.11H642.244V1814.83H671.086V1839.9L673.002 1840.6C676.803 1833.63 681.068 1828.01 685.827 1823.71C690.586 1819.42 696.244 1815.76 702.773 1812.74C707.618 1810.19 712.87 1808.8 718.47 1808.56C724.071 1808.33 726.972 1808.22 727.175 1808.22V1840.95Z" fill="black"/>
<path d="M795.922 1993.45C790.002 1993.45 784.896 1991.95 780.572 1988.93C776.249 1985.91 772.709 1982.43 769.952 1978.48C767.195 1974.54 765.339 1970.24 764.41 1965.6C763.453 1960.96 762.988 1953.99 762.988 1944.71V1842.34H742.067V1816.57L762.988 1816.22V1759.81H791.831V1816.22L816.233 1816.57V1842.34H791.831V1940.18C791.831 1944.36 791.859 1948.19 791.975 1951.67C792.063 1955.15 793.804 1958.52 797.199 1961.77C799.723 1964.32 802.886 1965.89 806.716 1966.47C810.517 1967.05 813.68 1967.34 816.233 1967.34L816.552 1993.45H795.922Z" fill="black"/>
<path d="M1139.09 1991.37V1814.83L1135.93 1814.13L1078.27 1991.37H1043.1L985.418 1813.79L982.575 1814.83V1991.37H956.576V1748.33H988.9L1061.15 1960.72L1132.12 1748.33H1165.09V1991.37H1139.09Z" fill="black"/>
<path d="M1321.91 1993.8C1320.02 1990.55 1318.69 1986.43 1317.96 1981.44C1317.24 1976.45 1316.74 1971.98 1316.54 1968.04C1309.98 1975.7 1301.54 1982.72 1291.18 1989.1C1280.82 1995.48 1269.1 1999.02 1256.01 1999.72C1239.53 2000.65 1225.17 1997.52 1212.92 1990.32C1200.68 1983.12 1193.6 1971.4 1191.71 1955.15C1189.6 1938.67 1192.38 1925.79 1200.1 1916.5C1207.82 1907.22 1217.8 1900.72 1230.04 1897C1239.74 1893.75 1249.95 1891.78 1260.63 1891.08C1271.31 1890.39 1281.81 1888.99 1292.14 1886.91C1297.42 1885.75 1302.82 1884.29 1308.3 1882.55C1313.79 1880.81 1316.54 1875.76 1316.54 1867.41C1316.54 1859.75 1313.38 1852.32 1307.02 1845.12C1300.7 1837.93 1289.7 1834.33 1274.09 1834.33C1258.45 1834.33 1247.11 1837.58 1240.03 1844.08C1232.95 1850.58 1229.93 1858.47 1231 1867.75H1201.84C1200.36 1848.49 1206.92 1833.69 1221.48 1823.36C1236.05 1813.03 1253.58 1807.87 1274.09 1807.87C1292.86 1807.87 1309.69 1813.03 1324.46 1823.36C1339.26 1833.69 1346.66 1848.02 1346.66 1866.36V1964.9C1346.66 1973.26 1347.65 1980.05 1349.68 1985.27C1351.68 1990.49 1352.78 1993.34 1353.02 1993.8H1321.91ZM1316.51 1900.49C1314.39 1902.11 1311.75 1903.74 1308.59 1905.36C1305.43 1906.99 1302.27 1908.15 1299.07 1908.84C1292.75 1910.47 1284.25 1911.8 1273.57 1912.85C1262.89 1913.89 1255.03 1915.34 1249.98 1917.2C1240.46 1920.45 1233.18 1924.45 1228.13 1929.21C1223.08 1933.97 1221.16 1941.11 1222.41 1950.63C1223.49 1960.14 1227.75 1966.47 1235.24 1969.6C1242.72 1972.74 1250.7 1974.07 1259.15 1973.61C1277.95 1972.21 1292.23 1966.18 1301.95 1955.5C1311.64 1944.82 1316.51 1934.84 1316.51 1925.56V1900.49Z" fill="black"/>
<path d="M1496.16 1993.46V1885.52C1496.16 1869.27 1493.06 1857.55 1486.82 1850.35C1480.58 1843.15 1471.04 1839.56 1458.15 1839.56C1444.63 1839.56 1433.43 1844.55 1424.58 1854.53C1415.7 1864.51 1411.26 1876.81 1411.26 1891.44V1993.46H1382.42V1814.83H1411.26V1835.03C1418.66 1827.6 1427.63 1820.87 1438.19 1814.83C1448.75 1808.8 1461.43 1806.71 1476.23 1808.57C1493.75 1810.89 1506.35 1818.9 1513.92 1832.59C1521.52 1846.29 1525.35 1859.29 1525.35 1871.59V1993.46H1496.16Z" fill="black"/>
<path d="M1679.62 1993.8C1677.74 1990.55 1676.4 1986.43 1675.68 1981.44C1674.95 1976.45 1674.46 1971.98 1674.25 1968.04C1667.7 1975.7 1659.25 1982.72 1648.89 1989.1C1638.54 1995.48 1626.81 1999.02 1613.73 1999.72C1597.25 2000.65 1582.88 1997.52 1570.64 1990.32C1558.39 1983.12 1551.31 1971.4 1549.43 1955.15C1547.31 1938.67 1550.09 1925.79 1557.81 1916.5C1565.53 1907.22 1575.51 1900.72 1587.76 1897C1597.45 1893.75 1607.66 1891.78 1618.34 1891.08C1629.02 1890.39 1639.52 1888.99 1649.85 1886.91C1655.13 1885.75 1660.53 1884.29 1666.01 1882.55C1671.5 1880.81 1674.25 1875.76 1674.25 1867.41C1674.25 1859.75 1671.09 1852.32 1664.74 1845.12C1658.41 1837.93 1647.41 1834.33 1631.8 1834.33C1616.16 1834.33 1604.82 1837.58 1597.74 1844.08C1590.66 1850.58 1587.64 1858.47 1588.71 1867.75H1559.55C1558.07 1848.49 1564.63 1833.69 1579.2 1823.36C1593.76 1813.03 1611.29 1807.87 1631.8 1807.87C1650.58 1807.87 1667.41 1813.03 1682.18 1823.36C1696.97 1833.69 1704.37 1848.02 1704.37 1866.36V1964.9C1704.37 1973.26 1705.36 1980.05 1707.39 1985.27C1709.39 1990.49 1710.5 1993.34 1710.73 1993.8H1679.62ZM1674.25 1900.49C1672.14 1902.11 1669.5 1903.74 1666.33 1905.36C1663.17 1906.99 1660.01 1908.15 1656.82 1908.84C1650.49 1910.47 1641.99 1911.8 1631.31 1912.85C1620.63 1913.89 1612.77 1915.34 1607.72 1917.2C1598.2 1920.45 1590.92 1924.45 1585.87 1929.21C1580.82 1933.97 1578.91 1941.11 1580.15 1950.63C1581.23 1960.14 1585.49 1966.47 1592.98 1969.6C1600.47 1972.74 1608.45 1974.07 1616.89 1973.61C1635.69 1972.21 1649.97 1966.18 1659.69 1955.5C1669.38 1944.82 1674.25 1934.84 1674.25 1925.56V1900.49Z" fill="black"/>
<path d="M1890.34 1967C1890.34 1996.01 1882.27 2015.97 1866.11 2026.88C1849.95 2037.77 1832.37 2043.25 1813.36 2043.25C1789.48 2043.25 1770.91 2037.16 1757.59 2024.97C1744.3 2012.78 1737.1 1999.15 1736.06 1984.06H1764.9C1765.51 1991.95 1769.75 1999.26 1777.58 2005.99C1785.42 2012.72 1797.46 2016.09 1813.71 2016.09C1829.96 2016.09 1842.03 2011.97 1849.83 2003.73C1857.67 1995.49 1861.55 1983.48 1861.55 1967.69V1949.93C1853.72 1958.52 1845.13 1965.2 1835.73 1969.95C1826.33 1974.71 1816.44 1977.09 1806.11 1977.09C1784.78 1977.09 1766.38 1969.08 1750.97 1953.07C1735.54 1937.05 1727.85 1916.27 1727.85 1890.74C1727.85 1865.21 1735.19 1844.78 1749.87 1829.46C1764.55 1814.14 1783.3 1806.48 1806.11 1806.48C1816.67 1806.48 1826.65 1808.74 1836.05 1813.27C1845.45 1817.79 1853.95 1824.12 1861.55 1832.24V1813.44H1890.4V1967H1890.34ZM1848.53 1934.96C1858.22 1925.21 1863.09 1910.47 1863.09 1890.74C1863.09 1870.78 1858.22 1856.38 1848.53 1847.56C1838.81 1838.74 1826.13 1834.33 1810.49 1834.33C1795.08 1834.33 1782.54 1838.74 1772.94 1847.56C1763.31 1856.38 1758.52 1870.78 1758.52 1890.74C1758.52 1910.47 1763.34 1925.21 1772.94 1934.96C1782.54 1944.71 1795.08 1949.59 1810.49 1949.59C1826.13 1949.59 1838.81 1944.71 1848.53 1934.96Z" fill="black"/>
<path d="M1946.74 1913.02C1947.14 1931.13 1952.43 1945.81 1962.58 1957.07C1972.71 1968.33 1984.66 1973.96 1998.39 1973.96C2011.91 1973.96 2022.03 1970.71 2028.8 1964.21C2035.56 1957.71 2039.76 1951.56 2041.48 1945.75H2072.52C2069.13 1957.59 2061.64 1969.31 2050.04 1980.92C2038.43 1992.53 2021.31 1998.33 1998.71 1998.33C1974.83 1998.33 1955.3 1989.39 1940.09 1971.52C1924.89 1953.64 1917.29 1931.01 1917.29 1903.62C1917.29 1876.23 1924.63 1853.77 1939.31 1836.24C1953.99 1818.72 1973.69 1809.96 1998.42 1809.96C2020.38 1809.96 2039.44 1818.08 2055.61 1834.33C2071.77 1850.58 2079.63 1876.81 2079.2 1913.02H1946.74ZM2049.08 1889C2048.24 1872.28 2043.39 1858.99 2034.51 1849.13C2025.63 1839.26 2013.59 1834.33 1998.39 1834.33C1984.23 1834.33 1972.56 1838.8 1963.36 1847.73C1954.17 1856.67 1948.83 1870.43 1947.35 1889H2049.08Z" fill="black"/>
<path d="M2298.13 1993.46L2297.81 1880.3C2297.81 1865.91 2295.95 1855 2292.27 1847.57C2288.58 1840.14 2280.17 1836.78 2267.08 1837.47C2256.11 1838.4 2247.32 1843.1 2240.79 1851.57C2234.26 1860.05 2230.99 1871.83 2230.99 1886.92V1993.46H2201.82V1880.3C2201.82 1865.91 2200.02 1855 2196.43 1847.57C2192.83 1840.14 2184.5 1836.78 2171.39 1837.47C2160.19 1838.4 2151.34 1843.1 2144.78 1851.57C2138.22 1860.05 2134.94 1871.83 2134.94 1886.92V1993.46H2106.1V1814.84H2134.94V1836.43C2140.42 1829.7 2147.62 1822.96 2156.5 1816.23C2165.38 1809.5 2176.55 1806.83 2190.1 1808.22C2197.7 1809.15 2204.61 1812.05 2210.85 1816.93C2217.06 1821.8 2221.99 1829.23 2225.59 1839.21C2229.59 1833.87 2236.41 1826.91 2246.02 1818.32C2255.62 1809.73 2268.88 1806.37 2285.8 1808.22C2301.64 1810.31 2312.4 1817.68 2318.09 1830.33C2323.81 1843.01 2326.65 1856.74 2326.65 1871.59V1993.46H2298.13Z" fill="black"/>
<path d="M2381.46 1913.02C2381.9 1931.13 2387.15 1945.81 2397.3 1957.07C2407.46 1968.33 2419.38 1973.96 2433.08 1973.96C2446.6 1973.96 2456.73 1970.71 2463.52 1964.21C2470.25 1957.71 2474.49 1951.56 2476.2 1945.75H2507.25C2503.88 1957.59 2496.36 1969.31 2484.76 1980.92C2473.15 1992.53 2456.03 1998.33 2433.43 1998.33C2409.55 1998.33 2390.02 1989.39 2374.79 1971.52C2359.55 1953.64 2351.98 1931.01 2351.98 1903.62C2351.98 1876.23 2359.32 1853.77 2374 1836.24C2388.69 1818.72 2408.39 1809.96 2433.08 1809.96C2455.07 1809.96 2474.14 1818.08 2490.3 1834.33C2506.46 1850.58 2514.33 1876.81 2513.89 1913.02H2381.46ZM2483.8 1889C2482.96 1872.28 2478.08 1858.99 2469.21 1849.13C2460.33 1839.26 2448.29 1834.33 2433.08 1834.33C2418.95 1834.33 2407.26 1838.8 2398.09 1847.73C2388.92 1856.67 2383.55 1870.43 2382.07 1889H2483.8Z" fill="black"/>
<path d="M2654.61 1993.46V1885.52C2654.61 1869.27 2651.51 1857.55 2645.27 1850.35C2639.03 1843.15 2629.45 1839.56 2616.6 1839.56C2603.08 1839.56 2591.88 1844.55 2583 1854.53C2574.12 1864.51 2569.68 1876.81 2569.68 1891.44V1993.46H2540.87V1814.83H2569.68V1835.03C2577.08 1827.6 2586.05 1820.87 2596.64 1814.83C2607.2 1808.8 2619.88 1806.71 2634.68 1808.57C2652.2 1810.89 2664.77 1818.9 2672.37 1832.59C2679.97 1846.29 2683.77 1859.29 2683.77 1871.59V1993.46H2654.61Z" fill="black"/>
<path d="M2758.81 1993.45C2752.87 1993.45 2747.76 1991.95 2743.47 1988.93C2739.11 1985.91 2735.6 1982.43 2732.82 1978.48C2730.09 1974.54 2728.23 1970.24 2727.33 1965.6C2726.37 1960.96 2725.85 1953.99 2725.85 1944.71V1842.34H2704.93V1816.57L2725.85 1816.22V1759.81H2754.69V1816.22L2779.13 1816.57V1842.34H2754.69V1940.18C2754.69 1944.36 2754.75 1948.19 2754.87 1951.67C2754.99 1955.15 2756.73 1958.52 2760.09 1961.77C2762.65 1964.32 2765.81 1965.89 2769.61 1966.47C2773.41 1967.05 2776.57 1967.34 2779.13 1967.34L2779.42 1993.45H2758.81Z" fill="black"/>
<path d="M3071.26 1892.65C3078.39 1904.61 3081.18 1917.9 3079.47 1932.52C3076.91 1951.55 3068.59 1968.04 3054.43 1981.96C3040.33 1995.89 3019.58 2002.86 2992.3 2002.86C2962.1 2002.86 2939.81 1992.99 2925.48 1973.26C2911.09 1953.53 2903.6 1932.98 2902.99 1911.63H2933.72C2934.56 1931.82 2940.39 1947.26 2951.27 1957.94C2962.15 1968.62 2976.05 1973.96 2993 1973.96C3010.12 1973.96 3022.91 1969.83 3031.47 1961.59C3040.03 1953.35 3045.46 1943.2 3047.81 1931.13C3049.52 1921.61 3048.1 1913.83 3043.66 1907.8C3039.22 1901.76 3032.49 1896.31 3023.38 1891.43C3013.22 1886.09 3002.4 1883.13 2990.91 1882.55C2979.42 1881.97 2967.73 1879.01 2955.95 1873.67C2941.15 1866.94 2929.83 1858.76 2922 1849.13C2914.16 1839.49 2910.51 1826.2 2910.94 1809.26C2911.35 1792.78 2918.25 1776.88 2931.69 1761.56C2945.06 1746.24 2965 1738.57 2991.43 1738.57C3022.89 1738.57 3044.42 1748.27 3056.05 1767.65C3067.69 1787.03 3073.52 1803.8 3073.52 1817.96L3042.73 1817.62C3042.73 1803.92 3038.58 1792.02 3030.26 1781.93C3021.87 1771.83 3008.96 1766.78 2991.43 1766.78C2974.95 1766.78 2962.88 1771.25 2955.16 1780.18C2947.39 1789.12 2943.56 1798.81 2943.56 1809.26C2943.56 1820.4 2946.6 1828.53 2952.64 1833.63C2958.67 1838.74 2964.94 1842.57 2971.44 1845.12C2979.88 1848.37 2990.65 1850.98 3003.62 1852.96C3016.59 1854.93 3029.36 1859.05 3041.81 1865.32C3054.25 1871.59 3064.06 1880.7 3071.26 1892.65Z" fill="black"/>
<path d="M3173.29 2012.59C3171.2 2018.4 3168.3 2023.44 3164.55 2027.74C3160.87 2032.03 3156.89 2035.46 3152.71 2038.01C3147.84 2040.8 3143.08 2042.48 3138.44 2043.06C3133.8 2043.64 3129.04 2043.81 3124.22 2043.58H3114.35V2017.12H3129.27C3133.91 2016.89 3137.77 2015.32 3140.82 2012.42C3143.86 2009.52 3146.16 2006.21 3147.61 2002.5L3154.92 1985.43L3087.78 1814.47L3117.52 1814.12L3168.24 1945.39L3218.9 1814.47H3248.7L3173.29 2012.59Z" fill="black"/>
<path d="M3385.57 1916.84C3391.69 1923.34 3394.42 1932.39 3393.78 1944C3392.94 1960.25 3385.8 1973.65 3372.42 1984.22C3358.99 1994.78 3343 2000.06 3324.43 2000.06C3295.7 2000.06 3276.15 1992.11 3265.79 1976.21C3255.49 1960.31 3250.09 1946.79 3249.62 1935.64H3278.47C3279.54 1945.62 3283.92 1953.98 3291.61 1960.71C3299.33 1967.45 3309.92 1970.81 3323.47 1970.81C3334.7 1970.81 3343.58 1968.72 3350.22 1964.54C3356.9 1960.37 3360.99 1954.33 3362.47 1946.44C3363.31 1940.87 3361.95 1936.14 3358.49 1932.16C3354.98 1928.21 3350.17 1924.73 3344.04 1921.72C3334.96 1917.07 3325.39 1913.94 3315.38 1912.31C3305.34 1910.69 3296.83 1908.72 3289.87 1906.39C3279.95 1902.68 3271.74 1897.11 3265.15 1889.68C3258.62 1882.25 3255.69 1872.5 3256.3 1860.43C3256.91 1847.2 3263.03 1835.25 3274.67 1824.57C3286.3 1813.89 3302.2 1808.55 3322.48 1808.55C3345.09 1808.55 3361.8 1815.14 3372.6 1828.22C3383.36 1841.34 3388.53 1853.7 3388.12 1865.31H3359.28C3359.28 1860.66 3356.78 1854.86 3351.79 1847.9C3346.86 1840.93 3336.56 1837.45 3320.92 1837.45C3308.06 1837.45 3299.04 1839.89 3293.99 1844.76C3288.94 1849.64 3286.39 1854.98 3286.39 1860.78C3286.39 1868.67 3288.83 1874.07 3293.64 1876.97C3298.52 1879.87 3304.12 1882.37 3310.47 1884.46C3317.84 1886.78 3326.63 1888.81 3336.76 1890.55C3346.89 1892.29 3355.85 1895.48 3363.69 1900.13C3372.13 1904.77 3379.44 1910.34 3385.57 1916.84Z" fill="black"/>
<path d="M3457.82 1993.45C3451.87 1993.45 3446.77 1991.95 3442.47 1988.93C3438.12 1985.91 3434.61 1982.43 3431.82 1978.48C3429.09 1974.54 3427.24 1970.24 3426.34 1965.6C3425.38 1960.96 3424.86 1953.99 3424.86 1944.71V1842.34H3403.94V1816.57L3424.86 1816.22V1759.81H3453.7V1816.22L3478.13 1816.57V1842.34H3453.7V1940.18C3453.7 1944.36 3453.76 1948.19 3453.87 1951.67C3453.99 1955.15 3455.73 1958.52 3459.1 1961.77C3461.65 1964.32 3464.81 1965.89 3468.61 1966.47C3472.42 1967.05 3475.58 1967.34 3478.13 1967.34L3478.42 1993.45H3457.82Z" fill="black"/>
<path d="M3521.8 1913.02C3522.26 1931.13 3527.51 1945.81 3537.67 1957.07C3547.83 1968.33 3559.72 1973.96 3573.42 1973.96C3586.97 1973.96 3597.1 1970.71 3603.86 1964.21C3610.62 1957.71 3614.85 1951.56 3616.56 1945.75H3647.61C3644.22 1957.59 3636.73 1969.31 3625.12 1980.92C3613.52 1992.53 3596.4 1998.33 3573.77 1998.33C3549.91 1998.33 3530.36 1989.39 3515.15 1971.52C3499.92 1953.64 3492.32 1931.01 3492.32 1903.62C3492.32 1876.23 3499.69 1853.77 3514.37 1836.24C3529.05 1818.72 3548.72 1809.96 3573.42 1809.96C3595.41 1809.96 3614.5 1818.08 3630.67 1834.33C3646.83 1850.58 3654.69 1876.81 3654.26 1913.02H3521.8ZM3624.17 1889C3623.33 1872.28 3618.45 1858.99 3609.6 1849.13C3600.69 1839.26 3588.68 1834.33 3573.45 1834.33C3559.34 1834.33 3547.65 1838.8 3538.48 1847.73C3529.31 1856.67 3523.92 1870.43 3522.44 1889H3624.17Z" fill="black"/>
<path d="M3873.25 1993.46L3872.91 1880.3C3872.91 1865.91 3871.05 1855 3867.36 1847.57C3863.68 1840.14 3855.29 1836.78 3842.21 1837.47C3831.21 1838.4 3822.42 1843.1 3815.92 1851.57C3809.33 1860.05 3806.05 1871.83 3806.05 1886.92V1993.46H3776.92V1880.3C3776.92 1865.91 3775.09 1855 3771.52 1847.57C3767.95 1840.14 3759.57 1836.78 3746.48 1837.47C3735.31 1838.4 3726.43 1843.1 3719.9 1851.57C3713.32 1860.05 3710.04 1871.83 3710.04 1886.92V1993.46H3681.25V1814.84H3710.04V1836.43C3715.52 1829.7 3722.75 1822.96 3731.62 1816.23C3740.47 1809.5 3751.67 1806.83 3765.17 1808.22C3772.77 1809.15 3779.68 1812.05 3785.91 1816.93C3792.15 1821.8 3797.08 1829.23 3800.65 1839.21C3804.69 1833.87 3811.48 1826.91 3821.11 1818.32C3830.74 1809.73 3843.95 1806.37 3860.89 1808.22C3876.71 1810.31 3887.47 1817.68 3893.19 1830.33C3898.9 1843.01 3901.75 1856.74 3901.75 1871.59V1993.46H3873.25Z" fill="black"/>
<path d="M3129.81 615.74C3120.94 602.914 3111.39 586.926 3101.2 567.776C3091.02 548.625 3085.91 525.818 3085.91 499.384C3085.91 472.776 3091.02 449.882 3101.2 430.732C3111.39 411.581 3120.96 395.593 3129.81 382.768H3147.89C3134.69 404.414 3125.26 424.725 3119.66 443.731C3114.06 462.736 3111.24 481.278 3111.24 499.384C3111.24 517.345 3114.06 535.8 3119.66 554.805C3125.23 573.782 3134.69 594.093 3147.89 615.74H3129.81Z" fill="black"/>
<path d="M3284.43 531.355V604.94H3259.33V531.355H3161.43V511.392H3382.3V531.355H3284.43ZM3305.87 449.007C3318 460.787 3338.98 470.044 3368.75 476.775L3351.95 493.837C3336.75 490.471 3321.25 484.378 3305.61 475.557C3289.94 466.736 3278.71 457.363 3271.84 447.411C3265.19 456.87 3254.89 465.923 3240.99 474.599C3227.09 483.246 3210.7 489.687 3191.81 493.837L3174.98 476.775C3204.43 470.682 3225.29 461.6 3237.63 449.5C3249.9 437.4 3256.89 428.144 3258.6 421.731H3187.57V401.536H3356.24V421.731H3285.21C3286.87 428.144 3293.74 437.226 3305.87 449.007Z" fill="black"/>
<path d="M3422.62 554.805C3428.19 535.8 3431.01 517.316 3431.01 499.384C3431.01 481.278 3428.19 462.707 3422.62 443.731C3416.99 424.754 3407.5 404.443 3394.13 382.768H3412.46C3421.31 395.593 3430.86 411.581 3441.07 430.732C3451.29 449.882 3456.37 472.776 3456.37 499.384C3456.37 525.847 3451.26 548.625 3441.07 567.776C3430.83 586.926 3421.28 602.914 3412.46 615.74H3394.13C3407.53 594.122 3416.99 573.811 3422.62 554.805Z" fill="black"/>
<path d="M3651.57 485.685C3635.73 479.476 3620.24 470.133 3605.03 457.627C3589.89 445.12 3579.15 433.224 3572.94 421.879C3566.67 435.545 3555.79 449.27 3540.3 463.053C3524.8 476.835 3509.77 487.165 3495.26 493.984L3470.83 472.831C3495.38 462.559 3515.58 448.457 3531.42 430.525C3547.26 412.593 3555.18 390.889 3555.18 365.442V342.026H3590.32V365.442C3590.32 390.019 3597.95 410.098 3613.24 425.709C3628.51 441.319 3647.86 453.187 3671.31 461.312L3651.57 485.685ZM3531.77 612.951V510.059H3735.58V612.951H3531.77ZM3702.12 536.986H3564.9V586.024H3702.12V536.986ZM3734.94 427.334V494.971H3701.45V334.046H3734.94V399.768H3776.08V427.334H3734.94Z" fill="black"/>
<path d="M3920.99 441.29C3898.01 469.813 3862.09 489.98 3813.22 501.731L3795.49 480.578C3824.05 475.675 3851.03 462.501 3876.48 441.145C3901.93 419.789 3915.42 399.391 3916.99 379.921H3812.9V352.994H3957.46C3956.13 383.316 3943.97 412.738 3920.99 441.29ZM4029.42 604.304C4009.75 615.185 3981.66 620.64 3945.07 620.64C3908.72 620.64 3880.66 615.185 3860.9 604.304C3841.17 593.394 3831.27 579.524 3831.27 562.608C3831.27 545.72 3841.17 531.763 3860.9 520.766C3880.69 509.769 3908.72 504.256 3945.07 504.256C3981.66 504.256 4009.75 509.769 4029.42 520.766C4049.04 531.763 4058.88 545.72 4058.88 562.608C4058.88 579.495 4049.04 593.394 4029.42 604.304ZM4001.34 539.221C3986.36 533.446 3967.74 530.574 3945.42 530.574C3922.91 530.574 3904.19 533.475 3889.33 539.221C3874.51 544.995 3867.08 552.916 3867.08 562.956C3867.08 572.763 3874.51 580.627 3889.33 586.517C3904.19 592.378 3922.88 595.338 3945.42 595.338C3967.74 595.338 3986.36 592.378 4001.34 586.517C4016.28 580.627 4023.74 572.763 4023.74 562.956C4023.74 552.887 4016.25 544.995 4001.34 539.221ZM4020.72 502.66V463.865H3960.83V436.938H4020.72V404.556H3966.17V377.629H4020.72V334.046H4054.2V502.689L4020.72 502.66Z" fill="black"/>
<path d="M4272.41 394.951V338.834H4304.85V494.651H4272.41V423.823H4237.94C4235.74 440.71 4228.19 454.435 4215.37 464.997C4202.54 475.559 4187.07 480.869 4169 480.869C4148.69 480.869 4132.06 474.572 4118.97 461.95C4105.89 449.328 4099.36 433.224 4099.36 413.551C4099.36 393.878 4106 377.745 4119.29 365.152C4132.58 352.559 4149.12 346.233 4169 346.233C4185.51 346.233 4199.9 350.73 4212.17 359.696C4224.45 368.691 4232.46 380.443 4236.26 394.951H4272.41ZM4143.41 383.722C4136.38 390.976 4132.87 400.929 4132.87 413.551C4132.87 426.173 4136.38 436.096 4143.41 443.351C4150.43 450.605 4158.96 454.232 4169 454.232C4178.83 454.232 4187.31 450.605 4194.45 443.351C4201.58 436.096 4205.15 426.144 4205.15 413.551C4205.15 400.958 4201.64 391.005 4194.62 383.722C4187.6 376.468 4179.07 372.841 4169 372.841C4158.96 372.841 4150.43 376.468 4143.41 383.722ZM4152.6 612.951V510.059H4366.83V612.951H4152.6ZM4333.32 536.986H4186.09V586.024H4333.32V536.986ZM4334.68 494.971V334.046H4367.15V494.971H4334.68Z" fill="black"/>
<path d="M4579.38 447.848V340.459H4611.82V603.347H4579.38V477.677H4548.24C4546.65 506.084 4539.62 528.542 4527.15 544.995C4514.61 561.447 4499.03 569.688 4480.29 569.688C4460.64 569.688 4444.39 560.344 4431.42 541.629C4418.45 522.913 4411.98 497.437 4411.98 465.171C4411.98 432.905 4418.48 407.37 4431.42 388.568C4444.36 369.765 4460.64 360.335 4480.29 360.335C4498.6 360.335 4513.86 368.198 4526.16 383.925C4538.41 399.623 4545.66 420.95 4547.89 447.877L4579.38 447.848ZM4506.05 410.678C4499.78 395.938 4491.31 388.568 4480.61 388.568C4469.43 388.568 4460.73 395.88 4454.49 410.533C4448.25 425.157 4445.15 443.263 4445.15 464.881C4445.15 486.237 4448.25 504.372 4454.49 519.228C4460.76 534.085 4469.46 541.513 4480.61 541.513C4491.31 541.513 4499.78 534.085 4506.05 519.228C4512.29 504.372 4515.42 486.266 4515.42 464.881C4515.42 443.496 4512.29 425.419 4506.05 410.678ZM4640.25 616.172V334.046H4672.72V616.172H4640.25Z" fill="black"/>
<path d="M4705.48 574.479V547.552H5000V574.479H4705.48ZM4810.12 473.328C4788.09 489.896 4766.19 501.271 4744.34 507.48L4720.86 484.064C4771.32 467.612 4802.95 447.678 4815.78 424.29C4828.6 400.874 4835.04 382.565 4835.04 369.304V349.748H4870.53V369.304C4870.53 382.565 4877.41 401.048 4891.25 424.784C4905.12 448.49 4936.22 468.279 4984.65 484.064L4961.2 507.48C4938.69 501.3 4916.84 489.49 4895.63 472.051C4874.42 454.641 4860.14 438.131 4852.77 422.52C4846.3 439.843 4832.08 456.789 4810.12 473.328Z" fill="black"/>
</svg>
